# AST/ASF file generated using VICON BodyLanguage
# -----------------------------------------------
:version 1.10
:name VICON
:units
  mass 1.0
  length 0.45
  angle deg
:documentation
   .ast/.asf automatically generated from VICON data using
   VICON BodyBuilder and BodyLanguage model FoxedUp or BRILLIANT.MOD
:root
   order TX TY TZ RX RY RZ
   axis XYZ
   position 0 0 0  
   orientation 0 0 0 
:bonedata
  begin
     id 1 
     name lhipjoint
     direction 0.576517 -0.752066 0.319413 
     length 2.45433 
     axis 0 0 0  XYZ
  end
  begin
     id 2 
     name lfemur
     direction 0.34202 -0.939693 0  
     length 7.54459  
     axis 0 0 20  XYZ
    dof rx ry rz
    limits (-160.0 20.0)
           (-70.0 70.0)
           (-60.0 70.0)
  end
  begin
     id 3 
     name ltibia
     direction 0.34202 -0.939693 0   
     length 7.73986   
     axis 0 0 20   XYZ
    dof rx
    limits (-10.0 170.0)
  end
  begin
     id 4 
     name lfoot
     direction 0.090693 -0.249177 0.964202   
     length 2.28437   
     axis -90 7.62852e-016 20   XYZ
    dof rx rz
    limits (-45.0 90.0)
           (-70.0 20.0)
  end
  begin
     id 5 
     name ltoes
     direction 1.5356e-011 -4.21928e-011 1   
     length 1.14243   
     axis -90 7.62852e-016 20   XYZ
    dof rx
    limits (-90.0 20.0)
  end
  begin
     id 6 
     name rhipjoint
     direction -0.573937 -0.753736 0.320122   
     length 2.44889  
     axis 0 0 0  XYZ 
  end
  begin
     id 7 
     name rfemur
     direction -0.34202 -0.939693 0   
     length 7.50166   
     axis 0 0 -20   XYZ
    dof rx ry rz
    limits (-160.0 20.0)
           (-70.0 70.0)
           (-70.0 60.0)
  end
  begin
     id 8 
     name rtibia
     direction -0.34202 -0.939693 0   
     length 7.54266   
     axis 0 0 -20   XYZ
    dof rx
    limits (-10.0 170.0)
 end
 begin
     id 9 
     name rfoot
     direction -0.114017 -0.31326 0.942798   
     length 2.34212  
     axis -90 -7.62852e-016 -20   XYZ
    dof rx rz
    limits (-45.0 90.0)
           (-20.0 70.0)
  end
  begin
     id 10 
     name rtoes
     direction -1.53557e-011 -4.21867e-011 1   
     length 1.16246   
     axis -90 -7.62852e-016 -20   XYZ
    dof rx
    limits (-90.0 20.0)
  end
  begin
     id 11 
     name lowerback
     direction -0.0228371 0.999155 -0.034167   
     length 2.0537   
     axis 0 0 0   XYZ
    dof rx ry rz
    limits (-20.0 45.0)
           (-30.0 30.0)
           (-30.0 30.0)
  end
  begin
     id 12 
     name upperback
     direction 0.0198981 0.999794 0.00389455   
     length 2.05302   
     axis 0 0 0   XYZ
    dof rx ry rz
    limits (-20.0 45.0)
           (-30.0 30.0)
           (-30.0 30.0)
  end
  begin
     id 13 
     name thorax
     direction 0.0304566 0.99935 0.0192987   
     length 2.05315   
     axis 0 0 0   XYZ
    dof rx ry rz
    limits (-20.0 45.0)
           (-30.0 30.0)
           (-30.0 30.0)
  end
  begin
     id 14 
     name lowerneck
     direction -0.0196762 0.99417 0.106017   
     length 1.82056   
     axis 0 0 0   XYZ
    dof rx ry rz
    limits (-20.0 45.0)
           (-30.0 30.0)
           (-30.0 30.0)
  end
  begin
     id 15 
     name upperneck
     direction 0.00517787 0.9802 -0.197944   
     length 1.83835   
     axis 0 0 0   XYZ
    dof rx ry rz
    limits (-20.0 45.0)
           (-30.0 30.0)
           (-30.0 30.0)
  end
  begin
     id 16
     name head
     direction 0.00211419 0.996945 -0.078081  
     length 1.85629  
     axis 0 0 0   XYZ
    dof rx ry rz
    limits (-20.0 45.0)
           (-30.0 30.0)
           (-30.0 30.0)
  end
  begin
     id 17 
     name lclavicle
     direction 0.930001 0.365811 -0.0357824  
     length 3.81961  
     axis 0 0 0   XYZ
    dof ry rz
    limits (-20.0 10.0)
           (0.0 20.0)
  end
  begin
     id 18 
     name lhumerus
     direction 1 -4.48968e-011 -3.06644e-027   
     length 5.14507   
     axis 180 -30 -90   XYZ
    dof rx ry rz
    limits (-60.0 90.0)
           (-90.0 90.0)
           (-90.0 90.0)
  end
  begin
     id 19
     name lradius
     direction 1 -4.48965e-011 9.06925e-028   
     length 3.50646   
     axis 180 -30 -90   XYZ
    dof rx
    limits (-10.0 170.0)
  end
  begin
     id 20
     name lwrist
     direction 1 -4.48957e-011 1.03922e-027   
     length 1.75323   
     axis -2.56395e-016 90 90   XYZ
    dof ry
    limits (-180.0 0.0)
 end
  begin
     id 21 
     name lhand
     direction 1 -4.48967e-011 2.08017e-027   
     length 0.629969   
     axis -1.32723e-015 90 90   XYZ
    dof rx rz
    limits (-90.0 90.0)
           (-45.0 45.0)
  end
  begin
     id 22 
     name lfingers
     direction 1 -4.49089e-011 4.20095e-027   
     length 0.507897   
     axis -2.6545e-015 90 90   XYZ
    dof rx
    limits (0.0 90.0)
  end
  begin
     id 23
     name lthumb
     direction 0.707107 -6.35001e-011 0.707107   
     length 0.729241   
     axis -90 45 5.05613e-014   XYZ
    dof rx rz
    limits (-45.0 45.0)
           (-45.0 45.0)
  end
  begin
     id 24 
     name rclavicle
     direction -0.881882 0.464123 -0.0829113   
     length 3.47515  
     axis 0 0 0   XYZ 
    dof ry rz
    limits (-10.0 20.0)
           (-20.0 0.0)
  end
  begin
     id 25 
     name rhumerus
     direction -1 -4.48961e-011 -1.55672e-027  
     length 5.232   
     axis 180 30 90   XYZ
    dof rx ry rz
    limits (-90.0 60.0)
           (-90.0 90.0)
           (-90.0 90.0)
  end
  begin
     id 26 
     name rradius
     direction -1 -4.48963e-011 6.18178e-029   
     length 3.65641   
     axis 180 30 90   XYZ
    dof rx
    limits (-10.0 170.0)
  end
  begin
     id 27 
     name rwrist
     direction -1 -4.48982e-011 1.04136e-027   
     length 1.8282   
     axis -2.56395e-016 -90 -90   XYZ
    dof ry
    limits (-180.0 0.0)
  end
  begin
     id 28
     name rhand
     direction -1 -4.48929e-011 2.07378e-027   
     length 0.656807   
     axis -1.32723e-015 -90 -90   XYZ
    dof rx rz
    limits (-90.0 90.0)
           (-45.0 45.0)
  end
  begin
     id 29
     name rfingers
     direction -1 -4.489e-011 4.13816e-027   
     length 0.529535   
     axis -2.6545e-015 -90 -90   XYZ
    dof rx
    limits (0.0 90.0)
  end
  begin
     id 30
     name rthumb
     direction -0.707107 -6.34843e-011 0.707107   
     length 0.760309   
     axis -90 -45 -5.05613e-014   XYZ
    dof rx rz
    limits (-45.0 45.0)
           (-45.0 45.0)
  end
:hierarchy
  begin
    root lhipjoint rhipjoint lowerback
    lhipjoint lfemur
    lfemur ltibia
    ltibia lfoot
    lfoot ltoes
    rhipjoint rfemur
    rfemur rtibia
    rtibia rfoot
    rfoot rtoes
    lowerback upperback
    upperback thorax
    thorax lowerneck lclavicle rclavicle
    lowerneck upperneck
    upperneck head
    lclavicle lhumerus
    lhumerus lradius
    lradius lwrist
    lwrist lhand lthumb
    lhand lfingers
    rclavicle rhumerus
    rhumerus rradius
    rradius rwrist
    rwrist rhand rthumb
    rhand rfingers
  end

#!OML:ASF H:\ManfredETheater\Project 1\Capture day 1\Session 1\subject.ASF
:FULLY-SPECIFIED
:DEGREES
33
root 15.8243 15.0922 29.3198 -162.081 -44.1886 185.812
lowerback 16.4992 4.00777 1.1092
upperback 2.67683 4.92239 -3.59182
thorax -5.93239 2.23242 -5.48532
lowerneck -11.3086 -8.63073 -11.4811
upperneck 15.2423 -10.468 3.75062
head 7.35358 -5.39103 1.98558
rclavicle -1.23246e-014 -9.14409e-014
rhumerus -19.1773 17.2511 -68.2657
rradius 96.1836
rwrist -4.03007
rhand -20.3734 1.46056
rfingers 7.12502
rthumb 5.97932 -28.4351
lclavicle -1.23246e-014 -9.14409e-014
lhumerus -58.9975 -3.3263 36.9009
lradius 89.3563
lwrist 12.6772
lhand -21.0779 -2.00694
lfingers 7.12502
lthumb 5.29911 27.9068
rfemur 7.09952 -11.2707 36.0273
rtibia 33.5501
rfoot 17.9564 4.88458
rtoes -38.2788
lfemur -85.2816 6.57327 -34.8628
ltibia 53.4216
lfoot 2.65732 -10.7218
ltoes -14.1194
34
root 15.7363 15.1334 28.9011 -162.832 -45.2487 186.321
lowerback 17.6693 3.9958 1.09223
upperback 3.32941 4.80844 -3.7378
thorax -5.86216 2.15199 -5.67077
lowerneck -10.9493 -8.82916 -11.962
upperneck 14.7628 -10.7832 4.4392
head 7.22611 -5.50496 2.2641
rclavicle 1.31198e-014 1.59028e-014
rhumerus -19.2947 15.948 -68.6678
rradius 93.639
rwrist -4.9363
rhand -19.5645 0.0355838
rfingers 7.12502
rthumb 6.76023 -29.8365
lclavicle 1.31198e-014 1.59028e-014
lhumerus -58.6368 -1.60701 37.5152
lradius 91.4918
lwrist 12.5475
lhand -21.9417 -1.74302
lfingers 7.12502
lthumb 4.46507 28.1899
rfemur 5.01322 -12.6606 36.4323
rtibia 38.89
rfoot 14.7964 3.82438
rtoes -41.8467
lfemur -84.7252 6.43853 -36.1748
ltibia 50.5393
lfoot 5.69132 -10.5009
ltoes -13.2873
35
root 15.6506 15.1647 28.4653 -164.069 -46.2079 186.925
lowerback 19.0592 4.09028 0.832635
upperback 4.18079 4.76801 -3.7067
thorax -5.71502 2.10377 -5.54814
lowerneck -10.4855 -8.99449 -12.2463
upperneck 14.1255 -11.0444 4.81638
head 6.99959 -5.61092 2.42547
rclavicle 6.67916e-014 -9.46215e-014
rhumerus -19.1995 14.6879 -68.9568
rradius 90.8391
rwrist -5.62958
rhand -19.2575 -0.926803
rfingers 7.12502
rthumb 7.0566 -30.7892
lclavicle 6.67916e-014 -9.46215e-014
lhumerus -58.3152 0.24164 38.5296
lradius 93.6824
lwrist 12.3069
lhand -22.6331 -1.39058
lfingers 7.12502
lthumb 3.79738 28.5553
rfemur 3.3139 -14.037 36.8519
rtibia 44.2749
rfoot 12.707 2.61711
rtoes -44.5817
lfemur -83.7591 6.6403 -37.3028
ltibia 48.2561
lfoot 8.06521 -10.4387
ltoes -13.5919
36
root 15.5655 15.194 28.0545 -165.429 -46.989 187.822
lowerback 20.468 4.18017 0.880502
upperback 4.99549 4.77388 -3.62327
thorax -5.57649 2.07067 -5.55604
lowerneck -9.91827 -9.11899 -12.3983
upperneck 13.3944 -11.251 4.98402
head 6.70338 -5.70362 2.5127
rclavicle -1.47101e-014 1.08934e-013
rhumerus -18.8523 13.6915 -69.0746
rradius 87.9155
rwrist -6.768
rhand -19.2426 -2.08306
rfingers 7.12502
rthumb 7.07093 -31.9449
lclavicle -1.47101e-014 1.08934e-013
lhumerus -58.0726 2.21834 39.8863
lradius 95.9095
lwrist 11.9782
lhand -23.0676 -1.28015
lfingers 7.12502
lthumb 3.37781 28.6728
rfemur 1.26256 -15.2221 37.3183
rtibia 49.6765
rfoot 11.5702 1.61621
rtoes -45.5124
lfemur -82.9612 6.81207 -37.8746
ltibia 46.6494
lfoot 9.78076 -9.88628
ltoes -11.6372
37
root 15.4727 15.203 27.6458 -166.815 -47.601 188.797
lowerback 21.5691 4.36581 0.822659
upperback 5.86167 4.88592 -3.42722
thorax -5.21838 2.09319 -5.37752
lowerneck -9.36977 -9.21354 -12.6295
upperneck 12.7846 -11.4096 5.13569
head 6.45159 -5.78106 2.61024
rclavicle 1.06549e-013 7.63333e-014
rhumerus -18.3913 12.4768 -69.0426
rradius 84.845
rwrist -7.23717
rhand -18.0163 -3.23938
rfingers 7.12502
rthumb 8.25456 -33.0581
lclavicle 1.06549e-013 7.63333e-014
lhumerus -57.7878 4.16959 41.6891
lradius 98.1497
lwrist 11.6465
lhand -23.635 -0.868476
lfingers 7.12502
lthumb 2.82987 29.0925
rfemur -0.885884 -16.2117 37.7634
rtibia 55.0193
rfoot 11.0618 0.479867
rtoes -44.2594
lfemur -82.3186 6.99506 -38.0775
ltibia 45.757
lfoot 10.838 -9.50435
ltoes -10.2307
38
root 15.3838 15.1989 27.2477 -168.872 -48.5903 189.906
lowerback 23.7 4.38504 1.17096
upperback 6.70336 4.82044 -3.20531
thorax -5.37637 1.99727 -5.44354
lowerneck -8.82768 -9.29382 -12.7852
upperneck 12.2831 -11.5803 5.39864
head 6.24042 -5.85436 2.72919
rclavicle 2.14687e-014 0
rhumerus -17.8593 11.8118 -69.0662
rradius 81.6205
rwrist -9.16484
rhand -18.9264 -4.03955
rfingers 7.12502
rthumb 7.3762 -33.891
lclavicle 2.14687e-014 0
lhumerus -57.3814 5.73698 43.8401
lradius 100.533
lwrist 11.7377
lhand -24.5139 -0.504985
lfingers 7.12502
lthumb 1.98108 29.4656
rfemur -2.72688 -17.789 38.0488
rtibia 60.3655
rfoot 10.3545 -0.296391
rtoes -41.095
lfemur -81.0563 6.91007 -37.7532
ltibia 45.487
lfoot 11.4317 -8.95964
ltoes -9.55909
39
root 15.292 15.1927 26.8367 -170.397 -49.3147 190.87
lowerback 25.0628 4.55172 1.18316
upperback 7.55817 4.87915 -3.04399
thorax -5.12147 1.97688 -5.35013
lowerneck -8.4633 -9.39413 -12.67
upperneck 11.7246 -11.7821 5.64194
head 6.02751 -5.92832 2.79221
rclavicle -4.69132e-014 4.73108e-014
rhumerus -17.098 11.4641 -69.1999
rradius 78.3788
rwrist -12.8883
rhand -21.8007 -4.23076
rfingers 7.12502
rthumb 4.60123 -34.1608
lclavicle -4.69132e-014 4.73108e-014
lhumerus -56.6853 7.00536 46.0972
lradius 102.929
lwrist 11.9395
lhand -25.2146 0.0445174
lfingers 7.12502
lthumb 1.30435 30.0203
rfemur -5.14428 -19.0054 38.2724
rtibia 65.6273
rfoot 8.60466 -1.57103
rtoes -39.649
lfemur -80.2289 6.78932 -37.171
ltibia 45.7517
lfoot 11.832 -7.55972
ltoes -10.0329
40
root 15.1949 15.1442 26.4419 -171.756 -49.9874 191.919
lowerback 26.4415 4.699 1.33428
upperback 8.23167 4.95729 -2.90155
thorax -5.03974 1.9655 -5.37325
lowerneck -7.95534 -9.48311 -12.6745
upperneck 11.0777 -11.9972 6.15027
head 5.78932 -6.00094 2.96283
rclavicle 5.96354e-014 -6.99722e-014
rhumerus -16.1633 10.1783 -69.0936
rradius 74.8291
rwrist -13.315
rhand -20.6921 -5.29235
rfingers 7.12502
rthumb 5.67162 -35.1964
lclavicle 5.96354e-014 -6.99722e-014
lhumerus -55.8738 8.02876 48.7874
lradius 105.319
lwrist 11.8815
lhand -25.9666 0.540054
lfingers 7.12502
lthumb 0.577969 30.519
rfemur -7.99674 -20.1683 38.4925
rtibia 70.8678
rfoot 6.50481 -2.99688
rtoes -39.6098
lfemur -79.8034 6.6474 -36.6081
ltibia 46.4672
lfoot 12.5737 -5.47111
ltoes -11.5301
